<svg xmlns="http://www.w3.org/2000/svg" viewBox="0 0 760 560" role="img" aria-labelledby="title desc">
  <title id="title">Abstract landmark project render</title>
  <desc id="desc">Silver editorial cards arranged like a product interface.</desc>
  <defs>
    <linearGradient id="al" x1="149" x2="612" y1="68" y2="493" gradientUnits="userSpaceOnUse">
      <stop stop-color="#fff"/>
      <stop offset=".58" stop-color="#eef1f4"/>
      <stop offset="1" stop-color="#c9d0d8"/>
    </linearGradient>
    <linearGradient id="glass" x1="216" x2="548" y1="112" y2="424" gradientUnits="userSpaceOnUse">
      <stop stop-color="#fff"/>
      <stop offset="1" stop-color="#e6eaee"/>
    </linearGradient>
  </defs>
  <rect width="760" height="560" fill="#f7f7f4"/>
  <ellipse cx="382" cy="494" rx="224" ry="33" fill="#8d98a7" opacity=".16"/>
  <g>
    <rect x="154" y="74" width="452" height="410" rx="34" fill="url(#al)"/>
    <rect x="174" y="94" width="412" height="370" rx="24" fill="#fafafa"/>
    <rect x="214" y="132" width="332" height="242" rx="20" fill="url(#glass)" stroke="#fff"/>
  </g>
  <g fill="#20242a">
    <rect x="244" y="166" width="143" height="13" rx="7" opacity=".82"/>
    <rect x="244" y="197" width="236" height="8" rx="4" opacity=".2"/>
    <rect x="244" y="218" width="187" height="8" rx="4" opacity=".15"/>
  </g>
  <g fill="#d9dee5">
    <rect x="245" y="272" width="70" height="62" rx="12"/>
    <rect x="338" y="248" width="70" height="86" rx="12"/>
    <rect x="431" y="222" width="70" height="112" rx="12"/>
  </g>
  <g fill="#23272e" opacity=".18">
    <rect x="246" y="405" width="84" height="8" rx="4"/>
    <rect x="348" y="405" width="72" height="8" rx="4"/>
    <rect x="438" y="405" width="78" height="8" rx="4"/>
  </g>
</svg>
