<svg xmlns="http://www.w3.org/2000/svg" viewBox="0 0 640 420" role="img" aria-labelledby="title desc">
  <title id="title">Generic planning interface render</title>
  <desc id="desc">A warm coral planning board with neutral product panels.</desc>
  <defs>
    <linearGradient id="bg" x1="64" x2="552" y1="42" y2="386" gradientUnits="userSpaceOnUse">
      <stop stop-color="#fff6f3"/>
      <stop offset="1" stop-color="#ffd6cd"/>
    </linearGradient>
    <linearGradient id="coral" x1="136" x2="512" y1="92" y2="330" gradientUnits="userSpaceOnUse">
      <stop stop-color="#ff7864"/>
      <stop offset="1" stop-color="#ff9f8e"/>
    </linearGradient>
  </defs>
  <rect width="640" height="420" fill="url(#bg)"/>
  <ellipse cx="320" cy="346" rx="220" ry="30" fill="#e58070" opacity=".2"/>
  <rect x="120" y="82" width="400" height="260" rx="28" fill="url(#coral)"/>
  <rect x="152" y="122" width="178" height="176" rx="20" fill="#fff" opacity=".92"/>
  <rect x="352" y="122" width="116" height="176" rx="20" fill="#fff" opacity=".84"/>
  <rect x="180" y="156" width="104" height="16" rx="8" fill="#1d1d1f"/>
  <rect x="180" y="194" width="118" height="12" rx="6" fill="#ffa899" opacity=".8"/>
  <rect x="180" y="224" width="92" height="12" rx="6" fill="#ffa899" opacity=".62"/>
  <rect x="180" y="254" width="128" height="12" rx="6" fill="#ffa899" opacity=".48"/>
  <rect x="382" y="156" width="58" height="12" rx="6" fill="#1d1d1f" opacity=".7"/>
  <rect x="382" y="192" width="48" height="48" rx="14" fill="#ffd6cd"/>
  <rect x="382" y="256" width="62" height="12" rx="6" fill="#ffa899" opacity=".7"/>
</svg>
